<?xml version="1.0" encoding="UTF-8" standalone="no"?>
<svg version="1.1" width="320px" height="320px" viewBox="0 -80 380 380" xmlns="http://www.w3.org/2000/svg" xmlns:xlink="http://www.w3.org/1999/xlink">
	<style>
	.heart-font {
		font: bold 56px courier new;
		fill: #502020;
	}
	.font-light {
		fill: #ffffff;
	}
	.font-red {
		fill: #ffff50;
	}
	.font-dark {
		fill: #665500;
	}
	</style>
	
	<radialGradient id="heart-gradient" cx="0.75" cy="0.3" r="0.45">
		<stop offset="0%" stop-color="#ff9999" />
		<stop offset="100%" stop-color="red" />
	</radialGradient>
	
	<path fill="#888888" d="m 154 65 c 30 -60 110 -60 130 0 c 30 100 -110 150 -130 210 c -20 -60 -160 -110 -130 -210 c 20 -60 100 -60 130 0 z" />
	
	<path fill="url(#heart-gradient)"
		stroke="red" stroke-width="4px" stroke-linecap="round" stroke-linejoin="round"
		d="m 150 58 c 30 -60 110 -60 130 0 c 30 100 -110 150 -130 210 c -20 -60 -160 -110 -130 -210 c 20 -60 100 -60 130 0 z"
		id="heart-path" />
	
	<g clip-path="url(#heart-clip)">
		<text x="0" y="45" textLength="600px" class="heart-font" id="heart-font-1">0110<tspan class="font-light">1</tspan>001001101001011</text>
		<text x="-400" y="45" textLength="600px" class="heart-font" id="heart-font-2">01101<tspan class="font-light">0</tspan>0100110<tspan class="font-light">1</tspan>001011</text>
		<text x="0" y="95" textLength="1000px" class="heart-font" id="heart-font-3" style="white-space: pre;">EFI <tspan class="font-light">EXE</tspan> MACH-O XBOX WINDOWS <tspan class="font-light">ELF</tspan> </text>
		<text x="0" y="95" textLength="1000px" class="heart-font" id="heart-font-4" style="white-space: pre;">EXE EFI MACH-O XBOX WINDOWS <tspan class="font-light">PE</tspan> </text>
		<text x="0" y="145" textLength="600px" class="heart-font" id="heart-font-5">011<tspan class="font-dark">0</tspan>100100<tspan class="font-dark">1</tspan>101001011</text>
		<text x="-400" y="145" textLength="600px" class="heart-font" id="heart-font-6">0110<tspan class="font-dark">1</tspan>0010011010<tspan class="font-dark">0</tspan>1011</text>
		<text x="0" y="195" textLength="600px" class="heart-font" id="heart-font-7" style="white-space: pre;">1 0 <tspan class="font-light">0 0 1 1</tspan> 0 1 0 </text>
		<text x="-400" y="195" textLength="600px" class="heart-font" id="heart-font-8" style="white-space: pre;">1 <tspan class="font-light">0 0 0</tspan> 1 1 0 1 0 </text>
		<text x="0" y="245" textLength="600px" class="heart-font" id="heart-font-9" style="white-space: pre;">BINARY <tspan class="font-red">VALENTINE</tspan> </text>
		<text x="-400" y="245" textLength="600px" class="heart-font" id="heart-font-10" style="white-space: pre;">BINARY VALENTINE </text>
	</g>
	
	<animate
		href="#heart-font-1"
		attributeName="x"
		values="0;600;-600;0"
		keyTimes="0;0.5;0.5;1"
		dur="14s"
		repeatCount="indefinite">
	</animate>
	<animate
		href="#heart-font-2"
		attributeName="x"
		values="-600;0;0;600"
		keyTimes="0;0.5;0.5;1"
		dur="14s"
		repeatCount="indefinite">
	</animate>
	
	<animate
		href="#heart-font-3"
		attributeName="x"
		values="0;-1000;1000;0"
		keyTimes="0;0.5;0.5;1"
		dur="18s"
		repeatCount="indefinite">
	</animate>
	<animate
		href="#heart-font-4"
		attributeName="x"
		values="1000;0;0;-1000"
		keyTimes="0;0.5;0.5;1"
		dur="18s"
		repeatCount="indefinite">
	</animate>
	
	<animate
		href="#heart-font-5"
		attributeName="x"
		values="0;-600;600;0"
		keyTimes="0;0.5;0.5;1"
		dur="22s"
		repeatCount="indefinite">
	</animate>
	<animate
		href="#heart-font-6"
		attributeName="x"
		values="600;0;0;-600"
		keyTimes="0;0.5;0.5;1"
		dur="22s"
		repeatCount="indefinite">
	</animate>
	
	<animate
		href="#heart-font-7"
		attributeName="x"
		values="0;600;-600;0"
		keyTimes="0;0.5;0.5;1"
		dur="30s"
		repeatCount="indefinite">
	</animate>
	<animate
		href="#heart-font-8"
		attributeName="x"
		values="-600;0;0;600"
		keyTimes="0;0.5;0.5;1"
		dur="30s"
		repeatCount="indefinite">
	</animate>
	
	<animate
		href="#heart-font-9"
		attributeName="x"
		values="0;-600;600;0"
		keyTimes="0;0.5;0.5;1"
		dur="25s"
		repeatCount="indefinite">
	</animate>
	<animate
		href="#heart-font-10"
		attributeName="x"
		values="600;0;0;-600"
		keyTimes="0;0.5;0.5;1"
		dur="25s"
		repeatCount="indefinite">
	</animate>
	
	<clipPath id="heart-clip">
		<path d="m 150 58 c 30 -60 110 -60 130 0 c 30 100 -110 150 -130 210 c -20 -60 -160 -110 -130 -210 c 20 -60 100 -60 130 0 z" />
	</clipPath>
	
	<ellipse cx="184" cy="109" rx="6" ry="10" fill="#770000" fill-opacity="0">
		<animate attributeName="fill-opacity"
			values="0;0;0.7;0.7;0;0" keyTimes="0;0.1;0.15;0.6;0.8;1" dur="4s"
			repeatCount="indefinite"/>
	</ellipse>
	
	<g mask="url(#arrow-clip)">
		<path fill="#AA336A" stroke="#550000" stroke-linecap="round" stroke-linejoin="round" stroke-width="2" d="m 21.494 272.1692 l 56.7541 -31.7756 l -25.5964 4.9931 l 203.8846 -203.8846 l 39.5362 -8.48 l 0.4534 -5.2264 l -33.4505 7.1674 l 7.9072 -7.9073 l 39.5361 -8.4799 l 0.4535 -5.2264 l -33.4505 7.1674 l 7.8991 -7.8993 l 39.5363 -8.48 l 0.4533 -5.2264 l -33.4506 7.1674 l 12.5847 -12.5847 l -4.3672 -4.3672 l -12.5927 12.5925 l 7.1755 -33.4585 l -5.2264 0.4534 l -8.4879 39.5441 l -7.8992 7.8992 l 7.1754 -33.4586 l -5.2264 0.4534 l -8.488 39.5441 l -7.9073 7.9072 l 7.1754 -33.4584 l -5.2264 0.4534 l -8.4878 39.544 l -203.877 203.877 l 4.9934 -25.5968 z">
			<animateMotion
				repeatCount="indefinite"
				dur="4s"
				keyPoints="0;0.1;0.9;1;1"
				keyTimes="0;0.1;0.13;0.15;1"
				calcMode="linear"
				path="M400,-400 L0,0" />
			<animate attributeName="fill-opacity"
				values="1;1;0;0" keyTimes="0;0.6;0.7;1" dur="4s"
				repeatCount="indefinite"/>
			<animate attributeName="stroke-opacity"
				values="1;1;0;0" keyTimes="0;0.6;0.7;1" dur="4s"
				repeatCount="indefinite"/>
		</path>
	</g>
	
	<mask id="arrow-clip">
		<rect x="0" y="-20" width="320" height="320" fill="white" />
		<path d="m 150 58 c 79 68 13 149 0 210 c -20 -60 -160 -110 -130 -210 c 20 -60 100 -60 130 0 z" fill="black" />
	</mask>
</svg>